<svg width="128" height="128" viewBox="0 0 128 128" fill="none" xmlns="http://www.w3.org/2000/svg">
<path d="M84 24C73 24 64 33 64 44C64 46.5 64.5 49 65.5 51.2L24.8 91.8C23.2 93.4 23.2 96 24.8 97.6L30.4 103.2C32 104.8 34.6 104.8 36.2 103.2L76.8 62.5C79 63.5 81.5 64 84 64C95 64 104 55 104 44C104 33 95 24 84 24ZM84 32C90.6 32 96 37.4 96 44C96 46.8 95 49.3 93.3 51.3L77 35L71.3 40.7L87.7 57C85.6 58.7 83 59.7 80 59.7C73.4 59.7 68 54.3 68 47.7C68 41.1 73.4 35.7 80 35.7C81.3 35.7 82.6 35.9 83.8 36.4L84 32Z" fill="#FA5252"/>
</svg>